<svg xmlns="http://www.w3.org/2000/svg" viewBox="0 0 500 558" fill="none">
  <rect width="500" height="558" fill="#000"/>

  <!-- Outer compass ring -->
  <circle cx="250" cy="279" r="238" stroke="rgba(255,255,255,0.1)" stroke-width="1"/>
  <g stroke="rgba(255,255,255,0.15)" stroke-linecap="round">
    <g stroke-width="1.2">
      <line x1="250" y1="44" x2="250" y2="54"/>
      <line x1="354" y1="72" x2="348" y2="81"/>
      <line x1="428" y1="164" x2="418" y2="168"/>
      <line x1="456" y1="279" x2="446" y2="279"/>
      <line x1="428" y1="394" x2="418" y2="390"/>
      <line x1="354" y1="486" x2="348" y2="477"/>
      <line x1="250" y1="514" x2="250" y2="504"/>
      <line x1="146" y1="486" x2="152" y2="477"/>
      <line x1="72" y1="394" x2="82" y2="390"/>
      <line x1="44" y1="279" x2="54" y2="279"/>
      <line x1="72" y1="164" x2="82" y2="168"/>
      <line x1="146" y1="72" x2="152" y2="81"/>
    </g>
    <g stroke-width="0.65" opacity="0.55">
      <line x1="302" y1="52" x2="299" y2="58"/>
      <line x1="398" y1="108" x2="393" y2="112"/>
      <line x1="448" y1="228" x2="442" y2="229"/>
      <line x1="448" y1="330" x2="442" y2="329"/>
      <line x1="398" y1="450" x2="393" y2="446"/>
      <line x1="302" y1="506" x2="299" y2="500"/>
      <line x1="198" y1="506" x2="201" y2="500"/>
      <line x1="102" y1="450" x2="107" y2="446"/>
      <line x1="52" y1="330" x2="58" y2="329"/>
      <line x1="52" y1="228" x2="58" y2="229"/>
      <line x1="102" y1="108" x2="107" y2="112"/>
      <line x1="198" y1="52" x2="201" y2="58"/>
    </g>
  </g>
  <text x="250" y="34" fill="rgba(255,255,255,0.34)" font-family="-apple-system,BlinkMacSystemFont,Segoe UI,sans-serif" font-size="13" font-weight="700" text-anchor="middle">N</text>
  <text x="468" y="283" fill="rgba(255,255,255,0.22)" font-family="-apple-system,BlinkMacSystemFont,Segoe UI,sans-serif" font-size="11" font-weight="700" text-anchor="middle">E</text>
  <text x="32" y="283" fill="rgba(255,255,255,0.22)" font-family="-apple-system,BlinkMacSystemFont,Segoe UI,sans-serif" font-size="11" font-weight="700" text-anchor="middle">W</text>
  <text x="250" y="538" fill="rgba(255,255,255,0.24)" font-family="-apple-system,BlinkMacSystemFont,Segoe UI,sans-serif" font-size="12" font-weight="700" text-anchor="middle">S</text>

  <!-- Inner waypoint ring -->
  <circle cx="250" cy="279" r="198" stroke="rgba(255,255,255,0.05)" stroke-width="0.7"/>
  <circle cx="250" cy="96" r="3.5" fill="rgba(255,255,255,0.38)"/>
  <circle cx="356" cy="136" r="3" fill="rgba(255,255,255,0.28)"/>
  <circle cx="404" cy="279" r="3" fill="rgba(255,255,255,0.28)"/>
  <circle cx="356" cy="422" r="3" fill="rgba(255,255,255,0.28)"/>
  <circle cx="144" cy="422" r="3" fill="rgba(255,255,255,0.28)"/>

  <!-- Header -->
  <text x="250" y="112" fill="rgba(255,255,255,0.52)" font-family="-apple-system,BlinkMacSystemFont,Segoe UI,sans-serif" font-size="12" font-weight="600" letter-spacing="0.14em" text-anchor="middle">WEST MARINA</text>
  <text x="250" y="130" fill="rgba(255,255,255,0.38)" font-family="-apple-system,BlinkMacSystemFont,Segoe UI,sans-serif" font-size="11" font-weight="500" letter-spacing="0.08em" text-anchor="middle">385FT</text>

  <!-- Center time -->
  <text x="250" y="296" fill="#fff" font-family="-apple-system,BlinkMacSystemFont,Segoe UI,sans-serif" font-size="100" font-weight="700" letter-spacing="-0.035em" text-anchor="middle">10:09</text>

  <!-- Top-left elevation arc -->
  <path d="M62 176a86 86 0 0 1 58 52" stroke="rgba(46,219,250,0.16)" stroke-width="7.5" stroke-linecap="round"/>
  <path d="M62 176a86 86 0 0 1 50 68" stroke="#2EDBFA" stroke-width="7.5" stroke-linecap="round"/>
  <text x="68" y="166" fill="rgba(255,255,255,0.42)" font-family="-apple-system,BlinkMacSystemFont,Segoe UI,sans-serif" font-size="9" font-weight="600">-120&#176;</text>
  <text x="74" y="248" fill="#fff" font-family="-apple-system,BlinkMacSystemFont,Segoe UI,sans-serif" font-size="34" font-weight="700">385</text>

  <!-- Top-right parked car -->
  <circle cx="402" cy="178" r="24" stroke="rgba(255,255,255,0.08)" stroke-width="1"/>
  <rect x="392" y="174" width="20" height="10" rx="2.5" stroke="rgba(255,255,255,0.78)" stroke-width="1.6" fill="none"/>
  <circle cx="396" cy="186" r="1.8" fill="rgba(255,255,255,0.78)"/>
  <circle cx="408" cy="186" r="1.8" fill="rgba(255,255,255,0.78)"/>
  <text x="402" y="222" fill="#fff" font-family="-apple-system,BlinkMacSystemFont,Segoe UI,sans-serif" font-size="20" font-weight="700" text-anchor="middle">10MI</text>
  <text x="402" y="238" fill="rgba(255,255,255,0.42)" font-family="-apple-system,BlinkMacSystemFont,Segoe UI,sans-serif" font-size="9" font-weight="600" letter-spacing="0.08em" text-anchor="middle">PARKED CAR</text>

  <!-- Bottom-left elevation -->
  <circle cx="98" cy="400" r="20" stroke="rgba(255,255,255,0.08)" stroke-width="1"/>
  <path d="M88 402l5-7 5 7 5-7" stroke="rgba(255,255,255,0.72)" stroke-width="1.6" stroke-linecap="round" stroke-linejoin="round" fill="none"/>
  <text x="98" y="442" fill="#fff" font-family="-apple-system,BlinkMacSystemFont,Segoe UI,sans-serif" font-size="13" font-weight="700" text-anchor="middle">385FT</text>

  <!-- Bottom-right tide -->
  <circle cx="398" cy="392" r="60" stroke="rgba(255,255,255,0.08)" stroke-width="1"/>
  <circle cx="398" cy="392" r="52" stroke="rgba(46,219,250,0.1)" stroke-width="0.8"/>
  <path d="M372 374c10-12 22-12 26 0s18 12 26 0" stroke="rgba(46,219,250,0.55)" stroke-width="2.8" stroke-linecap="round" fill="none"/>
  <text x="398" y="404" fill="#fff" font-family="-apple-system,BlinkMacSystemFont,Segoe UI,sans-serif" font-size="44" font-weight="700" text-anchor="middle">1.8</text>
  <text x="398" y="466" fill="rgba(255,255,255,0.62)" font-family="-apple-system,BlinkMacSystemFont,Segoe UI,sans-serif" font-size="12" font-weight="600" letter-spacing="0.06em" text-anchor="middle">FT &#8593;</text>
</svg>
